<svg width="146" height="120" viewBox="0 0 146 120" fill="none" xmlns="http://www.w3.org/2000/svg">
<path d="M144.466 53.3289C144.466 53.3289 130.714 53.0009 120.437 65.2059C110.159 77.4109 111.872 92.3989 105.448 95.3969C99.0241 98.3949 96.8831 90.6859 95.1701 78.4809C93.4571 66.2759 88.6131 58.7479 82.3231 58.7819C76.0321 58.8159 67.3341 58.7819 70.7601 61.1369C74.1861 63.4919 82.1081 60.4949 96.0261 56.6399C109.944 52.7859 120.864 40.1529 132.213 47.4329C143.561 54.7129 144.846 50.2169 145.488 57.0679C146.13 63.9199 120.008 89.6139 110.158 95.3959C100.308 101.177 88.5321 101.177 83.6071 97.1089C78.6821 93.0409 76.3271 89.8289 70.9741 88.1159C65.6211 86.4029 67.3341 76.5529 67.3341 76.5529C67.3341 76.5529 72.4731 67.3459 67.3341 64.5619C62.1951 61.7779 44.4231 65.8469 35.4301 70.5569C26.4371 75.2669 26.4371 83.8319 26.4371 83.8319C26.4371 83.8319 30.5051 74.4109 43.7811 73.7679C57.0561 73.1259 65.1931 80.8339 65.1931 80.8339C65.1931 80.8339 62.6241 86.6149 42.0681 86.8289C21.5121 87.0429 20.2281 85.3299 11.4491 78.4779C2.67009 71.6259 6.09609 72.9109 2.02809 64.7739C-2.03991 56.6369 6.52409 41.2209 17.8731 46.3599C29.2211 51.4989 57.7001 49.9999 67.3351 62.2049C67.3351 62.2049 53.3101 63.9179 47.4221 60.4919C41.5341 57.0659 13.9121 50.9639 8.45209 42.3989C2.99209 33.8339 0.958092 33.5129 7.91709 22.3789C14.8761 11.2449 26.7601 5.03488 33.8261 6.42688C40.8921 7.81888 42.2841 14.5639 48.8151 12.5299C55.3461 10.4959 55.7741 13.0649 58.4501 22.8079C61.1261 32.5509 60.1631 42.5069 59.7351 46.3609M59.7351 46.3609C59.3071 50.2149 63.4821 56.9599 63.4821 56.9599C63.4821 56.9599 58.3431 53.1059 56.2021 41.3289C54.0611 29.5519 54.5961 13.2789 57.7011 6.96188C60.8061 0.644882 71.2981 4.07088 77.5071 4.17788C83.7161 4.28488 86.5001 -0.533121 90.9971 1.50188C95.4941 3.53588 94.7441 9.20988 101.061 11.5659C107.378 13.9209 110.482 15.5269 111.232 21.7369C111.981 27.9469 110.375 27.6249 108.555 35.2269C106.735 42.8279 105.343 49.4659 99.8831 52.9989C94.4231 56.5319 84.3591 57.3879 83.6101 57.1739C82.8611 56.9599 90.3551 55.2469 92.3891 49.0369C94.4231 42.8279 97.6351 46.2529 96.3501 49.1439C95.0651 52.0349 89.1771 49.9999 89.1771 49.9999C89.1771 49.9999 83.6101 56.2099 78.2571 56.4239C72.9041 56.6379 84.1451 42.8269 88.4281 40.5789C92.7101 38.3309 93.0321 43.1479 88.5351 46.4669C84.0381 49.7859 79.3281 47.3229 79.3281 47.3229C79.3281 47.3229 75.3671 51.0699 74.5101 55.6739C73.6541 60.2779 70.6561 55.2459 74.8311 46.0389C79.0061 36.8319 81.5761 31.5859 83.7171 33.2989C85.8581 35.0119 84.0381 39.9369 80.0771 42.7199C76.1161 45.5039 68.5141 41.9709 68.5141 41.9709C68.5141 41.9709 67.6571 31.7999 71.1901 31.6929C74.7231 31.5859 69.9051 40.1509 69.0491 45.3969C68.1931 50.6429 70.3341 58.3509 70.3341 58.3509C70.3341 58.3509 61.7771 53.8049 59.7351 46.3609Z" stroke="#0C1A3B" stroke-miterlimit="10" stroke-linecap="round" stroke-linejoin="round"/>
<path d="M26.7941 88.331C20.7991 92.471 22.2261 103.462 22.2261 103.462C22.2261 103.462 27.6501 95.4679 36.2151 94.7539C44.7801 94.0399 52.4631 91.601 55.0581 88.33C57.6531 85.059 51.4891 86.76 46.9211 95.896C42.3531 105.032 48.0631 115.738 48.0631 115.738C48.0631 115.738 50.1511 106.209 55.6731 101.267C61.1951 96.3249 65.9981 88.561 65.1921 85.191C64.3871 81.82 61.6471 88.161 61.6231 91.329C61.6001 94.497 63.9071 107.317 74.8991 110.172C85.8911 113.027 88.4601 118.88 88.4601 118.88C88.4601 118.88 95.3071 110.325 85.2461 98.1869" stroke="#0C1A3B" stroke-miterlimit="10" stroke-linecap="round" stroke-linejoin="round"/>
</svg>
