<svg width="20" height="31" viewBox="0 0 20 31" fill="none" xmlns="http://www.w3.org/2000/svg">
<path d="M9.42195 30.488C8.95261 30.488 8.49395 30.3707 8.04595 30.136C7.59795 29.9013 7.27795 29.5173 7.08595 28.984C7.06461 28.92 7.08595 28.8667 7.14995 28.824C7.21395 28.8027 7.26728 28.8453 7.30995 28.952C7.52328 29.3573 7.78995 29.656 8.10995 29.848C8.45128 30.04 8.80328 30.136 9.16595 30.136C9.25128 30.136 9.33661 30.1253 9.42195 30.104C9.52861 30.104 9.62461 30.0933 9.70995 30.072C10.4353 29.9013 11.0006 29.4747 11.4059 28.792C11.8326 28.1093 12.1313 27.3093 12.3019 26.392C12.4939 25.4747 12.6113 24.5467 12.6539 23.608C12.6966 22.6907 12.7073 21.9013 12.6859 21.24C12.0886 21.5813 11.4699 21.88 10.8299 22.136C10.2113 22.392 9.56061 22.6053 8.87795 22.776C8.55795 22.8613 8.18461 22.936 7.75795 23C7.35261 23.0427 6.91528 23.064 6.44595 23.064C5.61395 23.064 4.79261 22.9147 3.98195 22.616C3.19261 22.296 2.64861 21.6987 2.34995 20.824C2.26461 20.6107 2.21128 20.3973 2.18995 20.184C2.16861 19.9493 2.15795 19.7253 2.15795 19.512C2.15795 18.8933 2.24328 18.296 2.41395 17.72C2.60595 17.1227 2.80861 16.5893 3.02195 16.12C2.53128 15.8213 2.09395 15.4587 1.70995 15.032C1.34728 14.6053 1.06995 14.1147 0.877947 13.56C0.792614 13.304 0.728614 13.048 0.685947 12.792C0.64328 12.536 0.621947 12.2907 0.621947 12.056C0.621947 11.096 0.888614 10.2213 1.42195 9.432C1.95528 8.62133 2.61661 7.93867 3.40595 7.384C4.19528 6.82933 4.97395 6.46667 5.74195 6.296C5.82728 6.27467 6.01928 6.24267 6.31795 6.2C6.63795 6.15733 6.93661 6.136 7.21395 6.136C7.55528 6.136 7.73661 6.17867 7.75795 6.264C7.80061 6.34933 7.76861 6.392 7.66195 6.392C7.36328 6.392 7.07528 6.392 6.79795 6.392C6.52061 6.392 6.23261 6.424 5.93395 6.488C5.20861 6.65867 4.49395 7 3.78995 7.512C3.10728 8.00267 2.53128 8.61067 2.06195 9.336C1.61395 10.0613 1.38995 10.8613 1.38995 11.736C1.38995 11.9707 1.41128 12.216 1.45395 12.472C1.49661 12.7067 1.56061 12.952 1.64595 13.208C1.96595 14.104 2.54195 14.84 3.37395 15.416C4.07795 14.072 4.85661 12.8987 5.70995 11.896C6.56328 10.872 7.45928 9.90133 8.39795 8.984C9.33661 8.04533 10.2859 7.05333 11.2459 6.008C11.2459 5.816 11.2353 5.61333 11.2139 5.4C11.2139 5.18667 11.2139 4.97333 11.2139 4.76C11.2139 4.248 11.2353 3.736 11.2779 3.224C11.3419 2.69067 11.4593 2.232 11.6299 1.848C11.7579 1.57067 11.9179 1.29333 12.1099 1.016C12.3233 0.717332 12.5899 0.567999 12.9099 0.567999C13.1233 0.567999 13.3046 0.642666 13.4539 0.792C13.6033 0.919999 13.7206 1.09067 13.8059 1.304C13.8913 1.496 13.9339 1.73067 13.9339 2.008C13.9339 2.47733 13.8059 2.94667 13.5499 3.416C13.3153 3.88533 13.0379 4.32267 12.7179 4.728C12.3979 5.112 12.1099 5.45333 11.8539 5.752C11.8539 6.62667 11.9179 7.52267 12.0459 8.44C12.1953 9.336 12.3339 10.2213 12.4619 11.096C12.9526 10.4773 13.5286 9.90133 14.1899 9.368C14.8726 8.81333 15.6086 8.44 16.3979 8.248C16.6539 8.184 16.9313 8.152 17.2299 8.152C17.6566 8.152 18.0619 8.25867 18.4459 8.472C18.8513 8.664 19.1499 9.03733 19.3419 9.592C19.4699 9.976 19.5339 10.4027 19.5339 10.872C19.5339 11.4267 19.4593 12.0027 19.3099 12.6C19.1606 13.176 19.0113 13.6773 18.8619 14.104C18.3713 15.4267 17.6993 16.6213 16.8459 17.688C15.9926 18.7333 15.0006 19.6293 13.8699 20.376C13.8913 20.7173 13.9126 21.0693 13.9339 21.432C13.9553 21.7947 13.9659 22.1573 13.9659 22.52C13.9659 23.6293 13.8593 24.7387 13.6459 25.848C13.4539 26.9787 13.0913 27.9493 12.5579 28.76C12.0246 29.592 11.2353 30.136 10.1899 30.392C9.97661 30.456 9.72061 30.488 9.42195 30.488ZM11.8539 5.304C12.0033 5.13333 12.1953 4.84533 12.4299 4.44C12.6859 4.01333 12.9099 3.56533 13.1019 3.096C13.2939 2.62667 13.3899 2.24266 13.3899 1.944C13.3899 1.816 13.3793 1.73067 13.3579 1.688C13.3366 1.624 13.3046 1.56 13.2619 1.496C13.2193 1.432 13.1553 1.4 13.0699 1.4C12.9419 1.4 12.8033 1.496 12.6539 1.688C12.5259 1.85867 12.4406 2.008 12.3979 2.136C12.2059 2.54133 12.0673 3.064 11.9819 3.704C11.9179 4.32267 11.8753 4.856 11.8539 5.304ZM5.54995 16.12C6.25395 16.12 6.92595 15.96 7.56595 15.64C8.22728 15.2987 8.83528 14.8827 9.38995 14.392C9.94461 13.9013 10.4246 13.432 10.8299 12.984C11.2566 12.5147 11.5766 12.152 11.7899 11.896C11.6833 10.9787 11.5766 10.072 11.4699 9.176C11.3846 8.25867 11.3099 7.34133 11.2459 6.424C10.7339 6.97867 10.2113 7.52267 9.67795 8.056C9.14461 8.58933 8.63261 9.144 8.14195 9.72C7.58728 10.36 7.06461 11.0427 6.57395 11.768C6.10461 12.472 5.66728 13.208 5.26195 13.976C5.09128 14.2747 4.93128 14.584 4.78195 14.904C4.63261 15.224 4.48328 15.5547 4.33395 15.896C4.71795 16.0453 5.12328 16.12 5.54995 16.12ZM13.7739 19.896C14.7766 19.256 15.6513 18.5093 16.3979 17.656C17.1659 16.7813 17.7633 15.7573 18.1899 14.584C18.3819 14.0507 18.5206 13.5707 18.6059 13.144C18.6913 12.696 18.7339 12.2907 18.7339 11.928C18.7339 11.0747 18.5313 10.4347 18.1259 10.008C17.7206 9.58133 17.1979 9.368 16.5579 9.368C15.9819 9.368 15.3419 9.54933 14.6379 9.912C13.9339 10.2533 13.2299 10.776 12.5259 11.48C12.7393 12.888 12.9739 14.296 13.2299 15.704C13.5073 17.112 13.6886 18.5093 13.7739 19.896ZM7.62995 22.136C7.99261 22.136 8.34461 22.1147 8.68595 22.072C9.04861 22.008 9.36861 21.944 9.64595 21.88C10.7126 21.624 11.7046 21.24 12.6219 20.728C12.6006 19.32 12.5046 17.912 12.3339 16.504C12.1846 15.0747 12.0246 13.6453 11.8539 12.216C11.6193 12.6213 11.2886 13.0907 10.8619 13.624C10.4353 14.136 9.93395 14.6373 9.35795 15.128C8.78195 15.5973 8.15261 15.992 7.46995 16.312C6.80861 16.632 6.11528 16.792 5.38995 16.792C4.96328 16.792 4.53661 16.728 4.10995 16.6C4.02461 16.8987 3.93928 17.2293 3.85395 17.592C3.78995 17.9547 3.75795 18.3173 3.75795 18.68C3.75795 19.128 3.82195 19.576 3.94995 20.024C4.24861 20.8347 4.74995 21.3893 5.45395 21.688C6.17928 21.9867 6.90461 22.136 7.62995 22.136Z" fill="white"/>
</svg>
