<svg width="189" height="280" viewBox="0 0 189 280" fill="none" xmlns="http://www.w3.org/2000/svg">
<path d="M62.5807 279.316C80.6007 249.396 73.4607 225.257 50.0007 199.417C26.5407 173.577 17.7007 145.698 23.8207 141.278C29.9407 136.858 45.6697 147.738 47.3247 157.938C48.9797 168.138 44.2207 188.198 42.8607 184.118C41.5007 180.038 33.0007 160.658 33.6807 153.178C34.3607 145.698 49.6607 156.918 51.7007 163.378C53.7407 169.838 44.3907 197.888 44.3907 197.888C44.3907 197.888 57.6507 211.148 58.8407 215.908C60.0307 220.668 43.3707 200.778 25.3507 195.678C7.33068 190.578 8.35068 200.778 12.4307 203.328C16.5107 205.878 23.9907 198.568 22.6307 197.718C21.2707 196.868 11.4107 196.868 7.67068 199.928C3.93068 202.988 11.2407 214.038 23.4807 211.148C35.7207 208.258 61.5607 217.268 68.5297 230.698" stroke="#0C1A3B" stroke-miterlimit="10" stroke-linecap="round" stroke-linejoin="round"/>
<path d="M71.9727 255.494C81.6207 225.087 99.4697 210.977 96.7507 187.347C94.0307 163.717 130.751 149.947 134.32 148.417M134.32 148.417C137.89 146.887 128.71 168.137 121.74 174.087C114.77 180.037 100.15 189.727 99.6397 184.967C99.1297 180.207 104.57 172.387 114.6 167.967C124.63 163.547 134.32 148.417 134.32 148.417Z" stroke="#0C1A3B" stroke-miterlimit="10" stroke-linecap="round" stroke-linejoin="round"/>
<path d="M96.7506 187.347C92.5006 163.037 89.2706 130.908 92.1606 116.798C95.0506 102.688 92.8406 100.138 89.4406 104.388C86.0406 108.638 86.3796 134.971 89.4406 145.698C92.5016 156.425 95.9006 145.868 95.5606 129.718C95.2206 113.568 118.851 95.7178 131.091 82.9678C143.331 70.2178 174.95 65.2878 180.73 64.0978C186.51 62.9078 189.23 78.8878 187.53 87.2178C185.83 95.5478 163.22 112.718 150.81 114.588C138.4 116.458 120.375 117.591 107.97 125.692C95.5656 133.793 96.5796 119.348 105.76 111.019C114.94 102.69 145.656 88.7288 152.849 78.7188C160.043 68.7088 161.179 39.4488 157.779 30.4388C154.379 21.4288 136.189 41.1488 125.309 47.7788C114.429 54.4088 101.339 102.412 100.319 107.735C99.2986 113.058 118.679 89.7678 125.139 77.0188C131.599 64.2688 140.609 47.2688 138.909 29.9298C137.209 12.5898 122.079 9.35978 112.899 2.89978C103.719 -3.56022 94.5386 12.7598 89.7786 25.5098C85.0186 38.2598 79.7486 38.0898 75.6686 36.7298C71.5886 35.3698 62.9186 13.7798 54.7586 8.16979C46.5986 2.55979 35.5486 4.90978 31.1286 1.43978C26.7086 -2.03022 28.4086 15.8198 25.0086 27.3798C21.6086 38.9398 26.8786 43.8698 36.5686 60.3598C46.2586 76.8498 55.4386 82.6298 66.9986 91.1298C78.5586 99.6298 87.2286 127.68 84.5086 131.59C81.7886 135.5 65.9786 124.62 49.1486 118.5C32.3186 112.38 25.1786 111.87 18.8886 104.73C12.5986 97.5898 15.8286 84.3298 9.36864 75.1498C2.90864 65.9698 0.188636 67.8398 1.20864 64.6098C2.22864 61.3798 17.9436 55.7238 27.7286 58.8298C37.5136 61.9358 47.9586 71.7498 62.2386 80.7598C76.5186 89.7698 82.6386 101.84 83.4886 110C84.3386 118.16 84.3386 118.16 84.3386 118.16C84.3386 118.16 85.6986 108.81 84.3386 100.82C82.9786 92.8298 71.7586 83.6498 65.2986 78.2098C58.8386 72.7698 55.2686 58.6598 56.7986 49.8198C58.3286 40.9798 74.9886 25.5098 75.4986 17.3498C76.0086 9.18978 91.1386 22.7898 96.0686 37.7498C100.999 52.7098 107.459 60.6998 107.969 68.3498C108.479 75.9998 100.319 107.736 100.319 107.736" stroke="#0C1A3B" stroke-miterlimit="10" stroke-linecap="round" stroke-linejoin="round"/>
</svg>
