<svg width="136" height="206" viewBox="0 0 136 206" fill="none" xmlns="http://www.w3.org/2000/svg">
<path d="M65.062 199.1C63.764 173.658 68.956 139.39 63.504 130.044C58.052 120.698 41.697 128.746 22.745 126.669C3.79399 124.592 -2.43703 111.612 2.75497 107.718C7.94697 103.824 32.61 109.535 46.11 119.4C59.61 129.265 62.206 131.342 63.244 139.779C64.283 148.216 68.955 167.427 68.955 181.706C68.955 195.985 71.032 203.773 66.619 205.33C62.206 206.888 68.955 190.922 72.85 182.355C76.744 173.788 88.816 168.336 106.339 164.247C123.863 160.158 124.252 157.043 127.173 148.086C130.094 139.129 134.961 138.935 134.961 138.935M134.961 138.935C134.961 138.935 129.509 134.457 118.995 132.51C108.481 130.563 101.666 138.156 101.666 138.156C101.666 138.156 98.551 135.041 94.267 135.041C89.983 135.041 88.426 144.387 81.416 148.865C74.407 153.343 76.354 173.008 76.354 173.008C76.354 173.008 77.816 160.969 91.736 150.903C108.286 138.935 134.961 138.935 134.961 138.935Z" stroke="#0C1A3B" stroke-miterlimit="10" stroke-linecap="round" stroke-linejoin="round"/>
<path d="M68.855 177.881C70.515 155.68 72.462 138.545 67.01 115.376C61.558 92.2057 70.405 77.9917 68.805 74.6817C67.205 71.3717 57.08 73.1237 47.15 71.3717C37.22 69.6197 33.131 79.5497 38.583 79.3547C44.035 79.1597 66.036 75.6557 73.046 74.2927C80.055 72.9297 90.375 78.5767 92.127 83.8337C93.879 89.0907 81.223 83.8337 76.356 79.7447C71.488 75.6557 64.674 65.7257 55.328 52.6807C45.982 39.6357 41.893 38.2307 33.326 43.4107C24.759 48.5917 22.617 39.2457 21.838 46.4497C21.059 53.6537 27.485 63.1947 40.14 66.5047C52.796 69.8147 63.31 71.3727 74.798 70.5937C86.286 69.8147 96.021 64.3627 101.278 53.6547C106.535 42.9457 110.681 43.6277 113.155 47.2297C115.629 50.8317 119.58 62.0047 106.924 68.6357C94.268 75.2667 75.765 72.5897 72.461 72.1517C69.157 71.7137 60.389 52.1087 59.805 44.5087C59.221 36.9097 66.814 36.9097 77.913 35.9357C89.011 34.9617 98.747 28.1477 101.472 32.2367C104.198 36.3257 103.03 46.2557 95.047 46.0607C87.064 45.8657 82.586 41.7737 73.045 41.3857C63.504 40.9977 62.336 45.0867 63.699 50.7337C65.062 56.3807 59.805 58.5217 53.769 53.2647C47.733 48.0077 38.387 44.1137 33.13 37.2987C27.873 30.4837 23.395 29.3157 23.395 29.3157C23.395 29.3157 31.183 20.7487 44.293 24.1237C57.403 27.4987 74.408 36.3257 81.677 31.9117C88.946 27.4987 94.398 21.3977 87.129 17.2437C79.86 13.0897 76.485 12.0517 67.139 17.2437C57.793 22.4357 48.966 25.6807 43.904 21.9167C38.842 18.1527 51.757 11.1427 62.693 9.97473C73.629 8.80673 83.564 11.5327 89.24 13.2197C94.917 14.9077 92.71 21.1377 92.71 21.1377C92.71 21.1377 101.154 22.5657 104.136 30.8727C107.118 39.1797 102.694 45.0157 98.811 53.0697C93.884 63.2867 84.521 68.6347 84.521 68.6347" stroke="#0C1A3B" stroke-miterlimit="10" stroke-linecap="round" stroke-linejoin="round"/>
<path d="M59.9261 42.1767C60.6491 44.7617 61.0381 35.1567 51.6921 32.0417C42.3461 28.9267 32.2211 26.2007 29.3661 21.1377C26.5101 16.0757 39.8801 6.08072 47.9281 3.74372C55.9761 1.40772 59.2181 5.17173 68.7601 1.92673C78.3021 -1.31827 82.0661 4.60675 83.7541 9.69175C85.4421 14.7767 82.0661 24.6417 73.3701 25.9397C64.6731 27.2377 63.245 24.0327 65.582 21.8057C67.919 19.5787 75.0581 18.0217 78.0431 18.2807C81.0291 18.5407 75.4471 23.4727 69.4761 23.7327" stroke="#0C1A3B" stroke-miterlimit="10" stroke-linecap="round" stroke-linejoin="round"/>
</svg>
