<svg width="126" height="201" viewBox="0 0 126 201" fill="none" xmlns="http://www.w3.org/2000/svg">
<path d="M61.4151 199.713C61.4151 199.713 50.6411 174.657 50.6411 154.613C50.6411 134.568 58.9091 120.036 75.6971 119.785C92.4841 119.534 100.502 132.563 100.502 132.563M100.502 132.563C100.502 132.563 106.766 136.321 86.7211 139.579C66.6761 142.836 54.1481 158.371 54.1481 158.371C54.1481 158.371 53.0421 154.681 62.1661 139.078C73.3711 119.916 93.4871 126.299 100.502 132.563Z" stroke="#0C1A3B" stroke-miterlimit="10" stroke-linecap="round" stroke-linejoin="round"/>
<path d="M51.1591 162.762C45.1921 132.502 55.3391 71.8041 61.7281 64.6631C68.1171 57.5221 60.2251 60.1531 57.7821 65.9781C55.3391 71.8031 44.8161 73.3071 40.4941 87.5891C36.1721 101.871 47.8231 121.039 47.8231 121.039C47.8231 121.039 50.0781 112.395 60.7891 102.811C71.5001 93.2271 73.7551 75.1871 67.1781 65.4151C67.1781 65.4151 65.2051 67.9521 68.7751 71.5221C72.3451 75.0921 96.0231 69.8311 103.07 63.6291C110.117 57.4281 116.224 45.9651 111.244 35.5351C106.264 25.1051 82.8761 27.7361 76.2951 31.5891C69.7141 35.4411 73.4721 39.5751 73.4721 39.5751C73.4721 39.5751 78.3581 34.6891 73.5661 31.3071C68.7741 27.9251 60.5061 28.3941 60.6941 31.9651C60.8821 35.5351 61.5401 42.2071 72.0631 42.8641C82.5861 43.5221 82.3991 37.3201 77.9821 34.3141C73.5661 31.3071 63.7001 32.4351 63.7001 32.4351C63.7001 32.4351 65.1091 37.5091 69.0561 39.2941C73.0021 41.0791 66.9891 42.4891 59.5661 39.8581C52.1431 37.2271 50.8281 48.4081 58.5321 53.5761C66.2371 58.7441 89.9141 55.7371 96.0221 46.0591C96.0221 46.0591 103.445 39.5761 101.002 26.7031C98.5591 13.8301 89.4451 9.60212 87.0021 4.52912C84.5591 -0.544875 75.3511 0.207124 73.9421 4.52912C72.5331 8.85112 71.0291 19.1871 69.8081 22.5691C68.5871 25.9511 71.0291 28.4881 71.0291 28.4881C71.0291 28.4881 72.7201 22.8501 73.2841 16.1791C73.8481 9.50812 64.9221 2.55512 61.2571 1.52112C57.5931 0.487121 55.3381 3.68212 51.7671 5.27912C48.1971 6.87612 49.6061 20.0311 51.8611 25.2921C54.1161 30.5531 59.1901 31.3051 59.1901 31.3051C59.1901 31.3051 54.9621 22.4731 49.4181 23.6001C43.8741 24.7281 37.4851 20.7811 33.8211 24.3521C30.1571 27.9231 25.2711 21.8151 23.0161 31.4931C20.7611 41.1711 33.2581 48.5941 33.2581 48.5941C33.2581 48.5941 37.0161 61.7481 46.9761 63.9091C56.9361 66.0701 61.8421 61.0831 61.8421 61.0831" stroke="#0C1A3B" stroke-miterlimit="10" stroke-linecap="round" stroke-linejoin="round"/>
<path d="M74.0331 42.906C84.7491 43.052 87.2861 52.072 97.8091 50.381C108.332 48.69 111.997 50.851 111.715 54.515C111.433 58.179 105.232 70.797 83.4801 71.488C83.4801 71.488 90.5741 65.696 100.064 63.441C109.554 61.186 120.641 66.072 123.93 78.38C127.219 90.689 120.172 109.668 120.172 109.668C120.172 109.668 114.159 96.514 99.8771 92.567C84.8871 88.425 82.4011 73.023 82.4011 73.023" stroke="#0C1A3B" stroke-miterlimit="10" stroke-linecap="round" stroke-linejoin="round"/>
<path d="M120.171 109.669C120.171 109.669 124.117 94.3541 114.252 82.3271C104.386 70.3001 93.561 70.1311 93.561 70.1311" stroke="#0C1A3B" stroke-miterlimit="10" stroke-linecap="round" stroke-linejoin="round"/>
<path d="M39.6481 56.582C47.3281 59.083 49.7961 65.79 49.7961 65.79C49.7961 65.79 52.3671 66.53 52.2391 69.173C52.1111 71.816 38.6151 80.73 26.4001 83.361C14.1851 85.992 4.97709 93.603 3.56809 99.522C3.56809 99.522 1.2191 92.005 2.0651 86.837C2.9111 81.669 -1.12991 78.042 2.62909 70.131C6.38709 62.22 20.2301 50.258 39.6481 56.582Z" stroke="#0C1A3B" stroke-miterlimit="10" stroke-linecap="round" stroke-linejoin="round"/>
<path d="M40.9981 60.9172C11.3661 63.4412 1.68908 84.6762 3.56808 99.5212" stroke="#0C1A3B" stroke-miterlimit="10" stroke-linecap="round" stroke-linejoin="round"/>
</svg>
